<mxfile host="app.diagrams.net" modified="2023-09-14T16:11:10.328Z" agent="Mozilla/5.0 (Macintosh; Intel Mac OS X 10_15_7) AppleWebKit/537.36 (KHTML, like Gecko) Chrome/114.0.0.0 Safari/537.36" etag="X5EjL-puDkkILaogVExk" version="21.7.5" type="device">
  <diagram name="Page-1" id="QjEKeedoOe5-gaBjk5ew">
    <mxGraphModel dx="1026" dy="585" grid="1" gridSize="10" guides="1" tooltips="1" connect="1" arrows="1" fold="1" page="1" pageScale="1" pageWidth="850" pageHeight="1100" math="0" shadow="0">
      <root>
        <mxCell id="0" />
        <mxCell id="1" parent="0" />
        <mxCell id="7UQ5sVzh4GVnJgvY4bEi-8" style="edgeStyle=orthogonalEdgeStyle;rounded=0;orthogonalLoop=1;jettySize=auto;html=1;exitX=1;exitY=0.5;exitDx=0;exitDy=0;entryX=0;entryY=0.5;entryDx=0;entryDy=0;" edge="1" parent="1" source="7UQ5sVzh4GVnJgvY4bEi-3" target="7UQ5sVzh4GVnJgvY4bEi-7">
          <mxGeometry relative="1" as="geometry" />
        </mxCell>
        <mxCell id="7UQ5sVzh4GVnJgvY4bEi-3" value="Monitoring Server" style="swimlane;whiteSpace=wrap;html=1;" vertex="1" parent="1">
          <mxGeometry x="60" y="190" width="280" height="270" as="geometry" />
        </mxCell>
        <mxCell id="7UQ5sVzh4GVnJgvY4bEi-2" value="Docker Host" style="swimlane;whiteSpace=wrap;html=1;" vertex="1" parent="7UQ5sVzh4GVnJgvY4bEi-3">
          <mxGeometry x="40" y="50" width="200" height="200" as="geometry" />
        </mxCell>
        <mxCell id="7UQ5sVzh4GVnJgvY4bEi-1" value="&lt;br&gt;host_agent DB:&lt;br&gt;host_info&lt;br&gt;host_usage" style="strokeWidth=2;html=1;shape=mxgraph.flowchart.database;whiteSpace=wrap;" vertex="1" parent="7UQ5sVzh4GVnJgvY4bEi-2">
          <mxGeometry x="45" y="60" width="115" height="110" as="geometry" />
        </mxCell>
        <mxCell id="7UQ5sVzh4GVnJgvY4bEi-7" value="Network Switch" style="html=1;whiteSpace=wrap;" vertex="1" parent="1">
          <mxGeometry x="425" y="300" width="110" height="50" as="geometry" />
        </mxCell>
        <mxCell id="7UQ5sVzh4GVnJgvY4bEi-24" style="edgeStyle=orthogonalEdgeStyle;rounded=0;orthogonalLoop=1;jettySize=auto;html=1;exitX=0;exitY=0.5;exitDx=0;exitDy=0;entryX=1;entryY=0.25;entryDx=0;entryDy=0;" edge="1" parent="1" source="7UQ5sVzh4GVnJgvY4bEi-9" target="7UQ5sVzh4GVnJgvY4bEi-7">
          <mxGeometry relative="1" as="geometry" />
        </mxCell>
        <mxCell id="7UQ5sVzh4GVnJgvY4bEi-9" value="Monitoring Server 1" style="swimlane;whiteSpace=wrap;html=1;" vertex="1" parent="1">
          <mxGeometry x="620" y="50" width="170" height="170" as="geometry" />
        </mxCell>
        <mxCell id="7UQ5sVzh4GVnJgvY4bEi-13" value="host_usage.sh" style="whiteSpace=wrap;html=1;shape=mxgraph.basic.document" vertex="1" parent="7UQ5sVzh4GVnJgvY4bEi-9">
          <mxGeometry x="37.5" y="40" width="95" height="50" as="geometry" />
        </mxCell>
        <mxCell id="7UQ5sVzh4GVnJgvY4bEi-16" value="host_info.sh" style="whiteSpace=wrap;html=1;shape=mxgraph.basic.document" vertex="1" parent="7UQ5sVzh4GVnJgvY4bEi-9">
          <mxGeometry x="37.5" y="100" width="95" height="50" as="geometry" />
        </mxCell>
        <mxCell id="7UQ5sVzh4GVnJgvY4bEi-23" style="edgeStyle=orthogonalEdgeStyle;rounded=0;orthogonalLoop=1;jettySize=auto;html=1;exitX=0;exitY=0.5;exitDx=0;exitDy=0;entryX=1;entryY=0.5;entryDx=0;entryDy=0;" edge="1" parent="1" source="7UQ5sVzh4GVnJgvY4bEi-17" target="7UQ5sVzh4GVnJgvY4bEi-7">
          <mxGeometry relative="1" as="geometry">
            <mxPoint x="540" y="325" as="targetPoint" />
          </mxGeometry>
        </mxCell>
        <mxCell id="7UQ5sVzh4GVnJgvY4bEi-17" value="Monitoring Server 2" style="swimlane;whiteSpace=wrap;html=1;" vertex="1" parent="1">
          <mxGeometry x="620" y="240" width="170" height="170" as="geometry" />
        </mxCell>
        <mxCell id="7UQ5sVzh4GVnJgvY4bEi-18" value="host_usage.sh" style="whiteSpace=wrap;html=1;shape=mxgraph.basic.document" vertex="1" parent="7UQ5sVzh4GVnJgvY4bEi-17">
          <mxGeometry x="37.5" y="40" width="95" height="50" as="geometry" />
        </mxCell>
        <mxCell id="7UQ5sVzh4GVnJgvY4bEi-19" value="host_info.sh" style="whiteSpace=wrap;html=1;shape=mxgraph.basic.document" vertex="1" parent="7UQ5sVzh4GVnJgvY4bEi-17">
          <mxGeometry x="37.5" y="100" width="95" height="50" as="geometry" />
        </mxCell>
        <mxCell id="7UQ5sVzh4GVnJgvY4bEi-25" style="edgeStyle=orthogonalEdgeStyle;rounded=0;orthogonalLoop=1;jettySize=auto;html=1;exitX=0;exitY=0.5;exitDx=0;exitDy=0;entryX=1;entryY=0.75;entryDx=0;entryDy=0;" edge="1" parent="1" source="7UQ5sVzh4GVnJgvY4bEi-20" target="7UQ5sVzh4GVnJgvY4bEi-7">
          <mxGeometry relative="1" as="geometry" />
        </mxCell>
        <mxCell id="7UQ5sVzh4GVnJgvY4bEi-20" value="Monitoring Server 3" style="swimlane;whiteSpace=wrap;html=1;" vertex="1" parent="1">
          <mxGeometry x="620" y="430" width="170" height="170" as="geometry" />
        </mxCell>
        <mxCell id="7UQ5sVzh4GVnJgvY4bEi-21" value="host_usage.sh" style="whiteSpace=wrap;html=1;shape=mxgraph.basic.document" vertex="1" parent="7UQ5sVzh4GVnJgvY4bEi-20">
          <mxGeometry x="37.5" y="40" width="95" height="50" as="geometry" />
        </mxCell>
        <mxCell id="7UQ5sVzh4GVnJgvY4bEi-22" value="host_info.sh" style="whiteSpace=wrap;html=1;shape=mxgraph.basic.document" vertex="1" parent="7UQ5sVzh4GVnJgvY4bEi-20">
          <mxGeometry x="37.5" y="100" width="95" height="50" as="geometry" />
        </mxCell>
      </root>
    </mxGraphModel>
  </diagram>
</mxfile>
